<?xml version="1.0" encoding="utf-8"?>
<!-- Generator: Adobe Illustrator 25.0.0, SVG Export Plug-In . SVG Version: 6.00 Build 0)  -->
<svg version="1.2" baseProfile="tiny" id="Calque_1"
	 xmlns="http://www.w3.org/2000/svg" xmlns:xlink="http://www.w3.org/1999/xlink" x="0px" y="0px" viewBox="0 0 300 300"
	 overflow="visible" xml:space="preserve">
<g>
	<path fill="#09AB8E" d="M119.22,166.64c-2.26,0-4.13,0-6,0c-8.62,0-17.25,0.06-25.87-0.03c-5.15-0.06-6.86-1.56-6.91-6.48
		c-0.13-13.25-0.13-26.5,0.01-39.75c0.05-4.91,1.86-6.42,6.95-6.44c9.36-0.05,18.72-0.01,28.08-0.01c1.13,0,2.26,0,3.74,0
		c0-1.55-0.02-2.78,0-4c0.22-11.98-0.22-24.01,0.8-35.92c2.56-29.99,25.6-51.69,55.72-52.83c12.6-0.48,25.24-0.2,37.85-0.16
		c4.19,0.01,5.98,1.81,6.01,6c0.07,12.51,0.07,25.03,0,37.54c-0.02,4.26-1.77,5.96-6.33,6.07c-8.51,0.21-17.03,0.21-25.55,0.34
		c-9.89,0.15-13.79,3.88-13.96,13.77c-0.17,9.34-0.04,18.69-0.04,28.37c1.32,0.06,2.42,0.16,3.53,0.16c10.83,0.01,21.66,0,32.5,0.01
		c7.06,0.01,8.61,1.53,8.61,8.45c0.01,12.41,0.02,24.82-0.01,37.23c-0.01,5.81-1.45,7.28-7.27,7.31
		c-11.15,0.05-22.3,0.02-33.44,0.02c-1.14,0-2.29,0-3.9,0c0,1.55,0,2.88,0,4.21c0,32.92,0,65.83,0,98.75
		c0,8.86-1.04,9.87-10.01,9.88c-12.09,0-24.19,0.01-36.28,0c-6.68-0.01-8.22-1.52-8.22-8.12c-0.01-33.34,0-66.67,0-100.01
		C119.22,169.72,119.22,168.47,119.22,166.64z"/>
</g>
</svg>
