<svg xmlns="http://www.w3.org/2000/svg" width="29.35" height="29.355" viewBox="0 0 29.35 29.355">
  <g id="instagram" transform="translate(-0.449 0)">
    <path id="Path_8" data-name="Path 8" d="M29.724,8.631a10.726,10.726,0,0,0-.682-3.561,7.52,7.52,0,0,0-4.3-4.3A10.754,10.754,0,0,0,21.186.092C19.614.017,19.115,0,15.13,0S10.645.017,9.08.086A10.73,10.73,0,0,0,5.519.768a7.163,7.163,0,0,0-2.6,1.7,7.227,7.227,0,0,0-1.692,2.6A10.755,10.755,0,0,0,.541,8.625C.466,10.2.449,10.7.449,14.681s.017,4.484.086,6.05a10.726,10.726,0,0,0,.683,3.561,7.519,7.519,0,0,0,4.3,4.3,10.756,10.756,0,0,0,3.561.682c1.565.069,2.064.086,6.05.086s4.484-.017,6.05-.086a10.724,10.724,0,0,0,3.561-.682,7.509,7.509,0,0,0,4.3-4.3,10.763,10.763,0,0,0,.682-3.561c.069-1.566.086-2.064.086-6.05S29.793,10.2,29.724,8.631ZM27.081,20.616a8.046,8.046,0,0,1-.5,2.724,4.87,4.87,0,0,1-2.787,2.787,8.075,8.075,0,0,1-2.724.5c-1.548.069-2.013.086-5.929.086s-4.387-.017-5.93-.086a8.042,8.042,0,0,1-2.724-.5,4.517,4.517,0,0,1-1.686-1.1,4.564,4.564,0,0,1-1.1-1.686,8.076,8.076,0,0,1-.5-2.724c-.069-1.548-.086-2.013-.086-5.93s.017-4.387.086-5.929a8.042,8.042,0,0,1,.5-2.724A4.462,4.462,0,0,1,4.8,4.352a4.557,4.557,0,0,1,1.686-1.1,8.08,8.08,0,0,1,2.724-.5c1.548-.069,2.013-.086,5.929-.086s4.387.017,5.93.086a8.046,8.046,0,0,1,2.724.5,4.514,4.514,0,0,1,1.686,1.1,4.563,4.563,0,0,1,1.1,1.686,8.079,8.079,0,0,1,.5,2.724c.069,1.548.086,2.013.086,5.929S27.15,19.068,27.081,20.616Zm0,0" transform="translate(0 0)" fill="#01a183"/>
    <path id="Path_9" data-name="Path 9" d="M132.49,124.5a7.541,7.541,0,1,0,7.541,7.541A7.543,7.543,0,0,0,132.49,124.5Zm0,12.433a4.892,4.892,0,1,1,4.892-4.892A4.892,4.892,0,0,1,132.49,136.933Zm0,0" transform="translate(-117.36 -117.36)" fill="#01a183"/>
    <path id="Path_10" data-name="Path 10" d="M365.97,90.362a1.761,1.761,0,1,1-1.761-1.76A1.761,1.761,0,0,1,365.97,90.362Zm0,0" transform="translate(-341.241 -83.521)" fill="#01a183"/>
  </g>
</svg>
