<?xml version="1.0" encoding="utf-8"?>
<!-- Generator: Adobe Illustrator 25.0.0, SVG Export Plug-In . SVG Version: 6.00 Build 0)  -->
<svg version="1.2" baseProfile="tiny" id="Calque_1"
	 xmlns="http://www.w3.org/2000/svg" xmlns:xlink="http://www.w3.org/1999/xlink" x="0px" y="0px" viewBox="0 0 300 300"
	 overflow="visible" xml:space="preserve">
<g>
	<path fill="#09AB8E" d="M274.71,55.5c0,63,0,125.99,0,188.99c-0.15,0.54-0.36,1.07-0.45,1.62c-2.86,16.64-16.69,28.55-33.51,28.56
		c-60.54,0.05-121.08,0.06-181.62-0.01c-18.69-0.02-33.77-15.12-33.78-33.79c-0.06-60.62-0.12-121.24,0.05-181.86
		c0.04-13.56,6.61-23.72,18.66-29.95c3.53-1.82,7.63-2.54,11.47-3.76c63,0,125.99,0,188.99,0c0.46,0.14,0.91,0.33,1.38,0.42
		c14.16,2.64,23.32,10.9,27.59,24.61C274,52.02,274.31,53.77,274.71,55.5z M158.16,135.5c0-2.16,0.05-4.32-0.01-6.48
		c-0.1-3.75-1.84-5.47-5.61-5.49c-7.22-0.04-14.44-0.03-21.67,0c-3.95,0.02-5.69,1.73-5.69,5.62c-0.01,31-0.01,62,0,92.99
		c0,4,1.8,5.76,5.83,5.77c6.65,0.02,13.31,0.01,19.96,0.01c5.71,0,7.08-1.34,7.08-6.97c0-15.58-0.03-31.16,0.02-46.74
		c0.02-5.95,1.31-11.6,4.61-16.64c4.02-6.14,9.92-8.03,16.91-7.08c6.4,0.87,10.68,4.64,12.18,10.71c1.24,5.05,1.81,10.38,1.89,15.59
		c0.23,15.01,0.05,30.02,0.06,45.04c0,4.4,1.66,6.05,6.02,6.05c7.22,0.01,14.44,0.01,21.67,0c4.35-0.01,6.06-1.72,6.06-6.05
		c-0.01-17.04,0.19-34.09-0.16-51.12c-0.15-7.09-0.89-14.28-2.39-21.21c-2.76-12.81-9.79-22.4-23.11-25.92
		c-3.88-1.02-7.99-1.54-12-1.61C177.41,121.75,166.24,124.64,158.16,135.5z M77.43,175.72c0,15.09,0,30.18,0,45.28
		c0,5.26,1.69,6.92,7.04,6.93c6.41,0,12.82,0.01,19.23,0c4.78-0.01,6.66-1.83,6.66-6.6c0.01-30.43,0.01-60.86,0-91.28
		c0-4.77-1.84-6.54-6.7-6.56c-6.49-0.02-12.98-0.02-19.47,0c-5.01,0.01-6.75,1.76-6.75,6.72C77.42,145.37,77.43,160.55,77.43,175.72
		z M115.08,93.36c0.08-11.59-9.3-21.17-20.85-21.3c-11.83-0.13-21.54,9.32-21.62,21.07c-0.08,11.7,9.36,21.31,21.02,21.38
		C105.56,114.58,115,105.28,115.08,93.36z"/>
</g>
</svg>
