<?xml version="1.0" encoding="utf-8"?>
<!-- Generator: Adobe Illustrator 25.0.0, SVG Export Plug-In . SVG Version: 6.00 Build 0)  -->
<svg version="1.2" baseProfile="tiny" id="Calque_1"
	 xmlns="http://www.w3.org/2000/svg" xmlns:xlink="http://www.w3.org/1999/xlink" x="0px" y="0px" viewBox="0 0 300 300"
	 overflow="visible" xml:space="preserve">
<g>
	<path fill="#09AB8E" d="M149.37,61.79c25.81,1.01,51.62,1.92,77.43,3.09c6.08,0.27,12.18,1.09,18.18,2.16
		c14.55,2.61,23.91,12.48,26.66,27.83c3.78,21.05,4.54,42.34,3.83,63.63c-0.5,14.88-1.93,29.75-3.38,44.59
		c-1.06,10.86-5.47,20.11-15.05,26.29c-5.85,3.77-12.45,4.87-19.15,5.57c-25.99,2.74-52.09,3.36-78.18,3.23
		c-26.26-0.13-52.53-0.93-78.78-1.77c-8.43-0.27-16.87-1.36-25.23-2.58c-14.35-2.1-24.14-11.95-27.1-26.74
		c-2.96-14.77-3.66-29.77-4.09-44.77c-0.57-19.73,0.04-39.44,2.54-59.04c0.56-4.4,1.31-8.81,2.41-13.1
		c3.39-13.17,14.15-22.03,28.4-23.82c24.56-3.08,49.26-3.34,73.96-3.76c5.85-0.1,11.69-0.01,17.54-0.01
		C149.35,62.33,149.36,62.06,149.37,61.79z M125.09,112.8c0,25.22,0,50.02,0,75.19c21.82-12.57,43.38-24.98,65.29-37.59
		C168.47,137.77,146.96,125.39,125.09,112.8z"/>
</g>
</svg>
